<?xml version="1.0" encoding="utf-8"?>
<!-- Generator: Adobe Illustrator 23.0.1, SVG Export Plug-In . SVG Version: 6.00 Build 0)  -->
<svg version="1.1" id="Layer_1" xmlns="http://www.w3.org/2000/svg" xmlns:xlink="http://www.w3.org/1999/xlink" x="0px" y="0px"
	 viewBox="0 0 377 278" style="enable-background:new 0 0 377 278;" xml:space="preserve">
<style type="text/css">
	.st0{fill:#B4C2D6;}
	.st1{fill:#577496;}
	.st2{fill:#D8D8D8;}
	.st3{fill:#60748C;}
	.st4{fill:#999FA3;}
	.st5{fill:#1966BA;}
	.st6{fill:#89C9EF;}
	.st7{fill:#17455E;}
	.st8{fill:#105B75;}
</style>
<g>
	<path class="st0" d="M349.7,65.4H27.3C21,65.4,16,69.8,16,75.3v177.2c0,5.5,5,9.9,11.3,9.9h322.4c6.2,0,11.3-4.4,11.3-9.9V75.3
		C361,69.8,356,65.4,349.7,65.4z M201.9,85.8c-1,1-2.4,1.6-3.9,1.6h-19c-3,0-5.5-2.5-5.5-5.5c0-1.5,0.6-2.9,1.6-3.9s2.4-1.6,3.9-1.6
		h19c3,0,5.5,2.5,5.5,5.5C203.5,83.4,202.9,84.8,201.9,85.8z"/>
</g>
<g>
	<g>
		<path class="st1" d="M164,117.3v108.2c0,7.4-6,13.4-13.4,13.4H59.4c-7.4,0-13.4-6-13.4-13.4V117.3c0-7.4,6-13.4,13.4-13.4h91.2
			C158,103.9,164,109.9,164,117.3z"/>
	</g>
	<g>
		<path class="st2" d="M146.1,232.6c0,2.1-0.1,4.2-0.2,6.2H64.1c-0.1-2.1-0.2-4.1-0.2-6.2c0-24.6,10-45.8,24.4-55.2
			c-4.2-4.3-6.7-10.2-6.7-16.6c0-13.2,10.7-23.9,23.9-23.9s23.9,10.7,23.9,23.9c0,6.7-2.7,12.7-7.2,17.1
			C136.4,187.5,146.1,208.4,146.1,232.6z"/>
	</g>
</g>
<g>
	<path class="st3" d="M319,135.1H208c-6.6,0-12-5.4-12-12v0c0-6.6,5.4-12,12-12h111c6.6,0,12,5.4,12,12v0
		C331,129.8,325.6,135.1,319,135.1z"/>
</g>
<g>
	<path class="st3" d="M277,183.1h-69c-6.6,0-12-5.4-12-12v0c0-6.6,5.4-12,12-12h69c6.6,0,12,5.4,12,12v0
		C289,177.8,283.6,183.1,277,183.1z"/>
</g>
<g>
	<path class="st3" d="M297,231.4h-89c-6.6,0-12-5.4-12-12v0c0-6.6,5.4-12,12-12h89c6.6,0,12,5.4,12,12v0
		C309,226,303.6,231.4,297,231.4z"/>
</g>
<path class="st4" d="M194.5,41.4h-12c-2.8,0-5,2.2-5,5v29c0,2.8,2.2,5,5,5h12c2.8,0,5-2.2,5-5v-29C199.5,43.6,197.3,41.4,194.5,41.4
	z M183.5,48.4c0-0.8,0.3-1.6,0.9-2.1c0.3-0.3,0.6-0.5,1-0.7c0.1,0,0.1,0,0.2-0.1c0.3-0.1,0.6-0.2,1-0.2h4c0.1,0,0.2,0,0.3,0
	c0.4,0,0.7,0.1,1,0.3c0.1,0,0.2,0.1,0.3,0.1c0.2,0.1,0.5,0.3,0.7,0.5c0.5,0.5,0.8,1.3,0.8,2H183.5z"/>
<circle class="st5" cx="188.5" cy="70.4" r="3.8"/>
<circle class="st6" cx="188.5" cy="70.4" r="2.6"/>
<path class="st7" d="M192.3,44.3l-0.3,0.6l-1.3,0.6c-0.1,0-0.2,0-0.3,0h-3.3l-1.2-0.6l-0.3-0.6l-1.3-2.9l-10.8-23.2l5.4-2.5l10,21.5
	l2,4.2L192.3,44.3z"/>
<path class="st8" d="M204.5,19.2l-10.4,22.2l-1.8,3.9l-0.3,0.6c-0.1,0-0.2-0.1-0.3-0.1c-0.4-0.2-0.8-0.3-1.3-0.3h-4
	c-0.3,0-0.7,0.1-1,0.2l0.1-0.3l1.8-3.9l1.5-3.2l10-21.5L204.5,19.2z"/>
</svg>
